<svg width="19" height="13" viewBox="0 0 19 13" fill="none" xmlns="http://www.w3.org/2000/svg">
<path d="M15.0417 3.33329L11.875 6.49996H14.25C14.25 9.12038 12.1204 11.25 9.5 11.25C8.70041 11.25 7.94041 11.052 7.28333 10.6958L6.1275 11.8516C7.10125 12.4691 8.25708 12.8333 9.5 12.8333C12.9992 12.8333 15.8333 9.99913 15.8333 6.49996H18.2083L15.0417 3.33329ZM4.75 6.49996C4.75 3.87954 6.87958 1.74996 9.5 1.74996C10.2996 1.74996 11.0596 1.94788 11.7167 2.30413L12.8725 1.14829C11.8987 0.530792 10.7429 0.166626 9.5 0.166626C6.00083 0.166626 3.16666 3.00079 3.16666 6.49996H0.791664L3.95833 9.66663L7.125 6.49996H4.75Z" fill="black"/>
</svg>
